<svg id="svg16" height="512" viewBox="0 0 64 64" width="512" xmlns="http://www.w3.org/2000/svg" xmlns:osb="http://www.openswatchbook.org/uri/2009/osb"><path id="path871" d="m42.605113 21.361589a1.50015 1.50015 0 0 0 -2.1199393.0317646l-13.435029 13.435029a1.50015 1.50015 0 1 0 2.1213203 2.1213204l13.435029-13.435029a1.50015 1.50015 0 0 0 -.001381-2.1530849zm-16.970563 16.970563a1.50015 1.50015 0 0 0 -2.1199393.0317646l-2.1213203 2.1213203a1.50015 1.50015 0 1 0 2.1213203 2.1213203l2.1213204-2.1213203a1.50015 1.50015 0 0 0 -.001381-2.1530849z" font-feature-settings="normal" font-variant-alternates="normal" font-variant-caps="normal" font-variant-ligatures="normal" font-variant-numeric="normal" font-variant-position="normal" isolation="auto" mix-blend-mode="normal" paint-order="fill markers stroke" shape-padding="0" solid-color="rgb(0,0,0)" text-decoration-color="rgb(0,0,0)" text-decoration-line="none" text-decoration-style="solid" text-indent="0" text-orientation="mixed" text-transform="none" white-space="normal"/><path id="path873" d="m38 34c-2.7436568 0-5 2.2563432-5 5s2.2563432 5 5 5 5-2.2563432 5-5-2.2563432-5-5-5zm0 3c1.1223364 0 2 .87766355 2 2s-.87766355 2-2 2-2-.87766355-2-2 .87766355-2 2-2z" font-feature-settings="normal" font-variant-alternates="normal" font-variant-caps="normal" font-variant-ligatures="normal" font-variant-numeric="normal" font-variant-position="normal" isolation="auto" mix-blend-mode="normal" paint-order="fill markers stroke" shape-padding="0" solid-color="rgb(0,0,0)" text-decoration-color="rgb(0,0,0)" text-decoration-line="none" text-decoration-style="solid" text-indent="0" text-orientation="mixed" text-transform="none" white-space="normal"/><path id="circle875" d="m26 20c-2.7436568 0-5 2.2563432-5 5s2.2563432 5 5 5 5-2.2563432 5-5-2.2563432-5-5-5zm0 3c1.1223364 0 2 .87766355 2 2s-.87766355 2-2 2-2-.87766355-2-2 .87766355-2 2-2z" font-feature-settings="normal" font-variant-alternates="normal" font-variant-caps="normal" font-variant-ligatures="normal" font-variant-numeric="normal" font-variant-position="normal" isolation="auto" mix-blend-mode="normal" paint-order="fill markers stroke" shape-padding="0" solid-color="rgb(0,0,0)" text-decoration-color="rgb(0,0,0)" text-decoration-line="none" text-decoration-style="solid" text-indent="0" text-orientation="mixed" text-transform="none" white-space="normal"/><path id="path818" d="m32.001084 5.0007889c-2.9774566.34079617-4.8309854 3.1621902-7.3655561 4.4740754-2.8270002.42263917-5.9854772-.78403186-8.603173.68283679-2.1966384 2.0234164-2.0428118 5.3735942-3.3126496 7.9204468-2.038448 1.9922945-5.3004027 2.8608512-6.5559001 5.5776499-.58237321 2.9290833 1.5255756 5.5402362 2.0056335 8.3434838-.47948248 2.8032766-2.5876202 5.4144857-2.0056335 8.3434838 1.2530422 2.7192832 4.5183426 3.5840568 6.5559001 5.5776499 1.2697082 2.5476205 1.1154163 5.898766 3.3126496 7.9227459 2.6176958 1.4668687 5.7761728.26019753 8.603173.68283682 2.5362917 1.3095798 4.3879525 4.1335312 7.3655561 4.4740753 2.9762932-.34184516 4.8274685-3.1649251 7.3632427-4.4740753 2.8472106-.51421876 5.9286353.4015055 8.6509291-.70241585 1.3540621-.89050731.19688146-3.176477-1.3223859-2.6335982-3.4607428.68822504-7.5667369-.8988804-10.433962 1.7901493-1.4839457.7973479-3.1088412 3.2410062-4.6526237 2.8322497-2.8256126-1.4951226-4.974426-4.907685-8.5698937-4.351038-1.6713934-.22201124-4.4253627.80900538-5.4382408-.42620029-1.3997517-2.8614128-1.125319-6.8782981-4.3597408-8.5273533-1.2215129-1.154328-4.0567429-1.9288832-4.1468531-3.5220594.5548469-3.1330082 3.158859-6.2084989 1.5163335-9.4449562-.30734459-1.6466362-2.1399403-3.9372646-1.2732686-5.272181 2.3002573-2.2106158 6.2211704-3.1690197 6.8112129-6.7550184.72987859-1.5108321.6009609-4.4415281 2.0901812-5.0086701 3.1689077-.44144982 6.9117259 1.0680419 9.5049329-1.4864767 1.4837125-.79863651 3.1073736-3.2376791 4.6529852-2.8318904 2.8255679 1.4955054 4.9744022 4.9059467 8.5695323 4.3529779 1.6713934.22201124 4.4253627-.80900537 5.4382408.42620029 1.4043228 2.859088 1.1227036 6.8786964 4.3597408 8.5251532 1.2197626 1.1572834 4.0577111 1.9302328 4.1468533 3.5239005-.55587833 3.1320782-3.1586047 6.2072071-1.5163336 9.4430163.30784791 1.6475486 2.1396177 3.9373122 1.2732686 5.2741208-2.2079237 2.1611708-5.9855454 3.0584395-6.7377377 6.4272017-.50170761 1.0314749-.77839354 2.8332191.68481231 3.208905 1.4314265.40299506 2.0836299-1.2425836 2.2541715-2.3523476.69308861-2.355763 3.5630941-2.922237 5.1988459-4.5192724 1.9784957-1.1189321 2.3462648-3.5864209 1.432472-5.5306996-.65082104-2.3754006-2.5212868-4.8173247-.96971494-7.245546.70092479-2.2547982 2.4552912-5.0338564.66031949-7.2042931-1.7140074-1.8005276-4.0678247-2.7942672-5.9082537-4.4377083-1.2698378-2.5468526-1.1160111-5.8970305-3.3126496-7.9204468-2.6176958-1.4668687-5.7761728-.26019759-8.603173-.68283678-2.5247012-1.3008534-4.39873-4.1452753-7.3632427-4.4740753z" font-feature-settings="normal" font-variant-alternates="normal" font-variant-caps="normal" font-variant-ligatures="normal" font-variant-numeric="normal" font-variant-position="normal" isolation="auto" mix-blend-mode="normal" paint-order="fill markers stroke" shape-padding="0" solid-color="rgb(0,0,0)" text-decoration-color="rgb(0,0,0)" text-decoration-line="none" text-decoration-style="solid" text-indent="0" text-orientation="mixed" text-transform="none" white-space="normal"/></svg>