<svg clip-rule="evenodd" fill-rule="evenodd" height="512" stroke-linejoin="round" stroke-miterlimit="2" viewBox="0 0 48 48" width="512" xmlns="http://www.w3.org/2000/svg"><g transform="translate(-336 -48)"><g id="Icon"><path d="m379 60.599c0-1.975-1.164-3.766-2.969-4.569-3.717-1.651-10.811-4.804-14-6.222-1.293-.574-2.769-.574-4.062 0-3.189 1.418-10.283 4.571-14 6.222-1.805.803-2.969 2.594-2.969 4.569v15.401c0 6.174 3.416 10.566 7.38 13.557 3.853 2.906 8.209 4.471 10.226 5.089.005.002.011.003.016.005.9.259 1.855.259 2.755.001.006-.002.012-.003.018-.005 2.017-.619 6.372-2.183 10.225-5.09 3.964-2.991 7.38-7.383 7.38-13.557zm-2 0v15.401c0 5.461-3.078 9.314-6.585 11.96-3.612 2.726-7.698 4.189-9.597 4.772-.533.151-1.098.151-1.631 0-1.903-.584-5.989-2.046-9.602-4.772-3.507-2.646-6.585-6.499-6.585-11.96v-15.401c0-1.185.698-2.259 1.782-2.741 3.716-1.652 10.81-4.805 14-6.222.775-.345 1.661-.345 2.436 0 3.19 1.417 10.284 4.57 14 6.222 1.084.482 1.782 1.556 1.782 2.741z"/><path d="m360 61.223c-6.01 0-10.889 4.879-10.889 10.888 0 6.01 4.879 10.889 10.889 10.889s10.889-4.879 10.889-10.889c0-6.009-4.879-10.888-10.889-10.888zm0 2c4.906 0 8.889 3.982 8.889 8.888s-3.983 8.889-8.889 8.889-8.889-3.983-8.889-8.889 3.983-8.888 8.889-8.888z"/><g transform="matrix(.707 -.707 .707 .707 54.53 274.344)"><path d="m355 70v4c0 .552.448 1 1 1h8c.552 0 1-.448 1-1s-.448-1-1-1h-7v-3c0-.552-.448-1-1-1s-1 .448-1 1z"/></g></g></g></svg>