<svg id="Layer_1" height="512" viewBox="0 0 110 110" width="512" xmlns="http://www.w3.org/2000/svg" data-name="Layer 1"><path d="m54.08 6.92a9.22 9.22 0 1 1 -9.22 9.22 9.23 9.23 0 0 1 9.22-9.22zm-30 45a7.23 7.23 0 0 0 2.64.49 11.56 11.56 0 0 0 7.38-3.2l.16-.15a47.82 47.82 0 0 1 6.8-20.18c-.76-3.48-2.62-6-5.26-7s-5.88-.44-8.89 1.77a21.19 21.19 0 0 0 -6.91 9.4 21.21 21.21 0 0 0 -1.31 11.54c.76 3.67 2.65 6.27 5.38 7.34zm78.92 50.16a1 1 0 0 1 -1 1h-94a1 1 0 0 1 0-2h15.87a5.07 5.07 0 0 1 -.37-.64 4.48 4.48 0 0 1 0-3.59l13.23-31.35.08.07 9.26 7.91-14.54 27.22c-.07.13-.15.26-.23.38h22.31a4.78 4.78 0 0 1 -1-2.88 2.09 2.09 0 0 1 0-.25l.78-19.45a2.73 2.73 0 0 0 -1-2.21l-14.28-12.24a5.26 5.26 0 0 1 -1.82-3.37c-.64-5.17-1.29-18.56 6.71-31.08a5.31 5.31 0 0 1 6.75-1.94l23.93 11.34a1.21 1.21 0 0 0 1 0l7.17-3v-15.51a1 1 0 1 1 2 0v14.74l1.3-.55a3.59 3.59 0 0 1 3.23 6.4l-4.53 2.73v57.27h18.15a1 1 0 0 1 1 1zm-21.18-57.08-6.51 3.91a3.18 3.18 0 0 1 -2.67.29l-16.29-5.53a1.05 1.05 0 0 0 -.85.09 1 1 0 0 0 -.5.68l-2.43 11.88a1 1 0 0 0 .22.87l9.24 11a9.46 9.46 0 0 1 2.16 6.86l-2 23.52a4.81 4.81 0 0 1 -.92 2.46h20.55z"/></svg>