<svg id="Layer_1" enable-background="new 0 0 100 100" height="512" viewBox="0 0 100 100" width="512" xmlns="http://www.w3.org/2000/svg"><path d="m90.7495117 57.8021202-2.592453-.5498238-16.9949646-28.2703666.6256256-2.4883499 23.8586502-14.217557 1.8536301 3.1109429-22.2961044 13.2877111 15.0564422 25.0462246 4.7007752-3.2959023 2.0800247 2.9654045z"/><path d="m9.2504854 57.8021202-6.2916245-4.4117165 2.0800261-2.9654045 4.700779 3.2959023 15.0564384-25.0462246-22.2961027-13.2877111 1.8536288-3.1109429 23.8586498 14.217557.6256256 2.4883499-16.9949675 28.2703666z"/><path d="m76.8361816 70.1054077c-.9945297 0-1.9830017-.2526779-2.8592834-.7307434l-14.662262-7.9501839 1.7262802-3.1837158 14.6673203 7.9522133c.9722977.528595 2.2265778.2840042 2.9219437-.5397186.7105179-.8409042.7469101-2.0881119.0848999-2.9633789-.1101685-.137455-.2314529-.2658157-.356781-.3709297l-12.5125046-10.5668984-12.575161-7.8036346c-.9156952-.5680161-2.0426292-.7145691-3.0846634-.4012489l-3.9670105 1.2047577-4.2732506 4.6916809c-1.5938797 1.7525597-3.8720016 2.7582092-6.2511978 2.7582092-.9773483 0-1.939537-.167778-2.8592758-.4992867-1.411953-.5043411-2.5267582-1.6029739-3.0533333-3.013916-.5285988-1.4139748-.4063034-2.9795532.3345413-4.2944756l6.165287-10.9408607 1.022831-.8368607c6.0015526-1.9385281 12.0627403-3.1675434 18.5322456-3.7567825l.6205711.0515461 13.5434151 3.5313969 4.6896667-1.759634 1.2714615 3.3919163-5.2263412 1.9607658-1.0925751.0565987-13.7920456-3.5960808c-5.8388329.5528526-11.3330116 1.6514893-16.7594757 3.3525009l-5.8196259 10.3233185c-.2941132.5235443-.1869812 1.0066605-.0970268 1.2492294.0899506.2395363.3234253.6711044.8833542.8712273 1.8243179.6579666 3.9255676.1233025 5.2081528-1.2866249l4.6098137-5.0615997.812603-.5134392 4.4511375-1.3523216c2.0426292-.6104622 4.2409096-.3214035 6.0389481.7903709l12.9026337 8.0300331 12.6095276 10.6487656c.3082657.2587395.6003571.5619507.8873978.9237823 1.7272873 2.2831764 1.6423874 5.3627892-.1819305 7.5216484-1.1370393 1.3432235-2.7986375 2.1123733-4.5602876 2.1123733z"/><path d="m81.227684 63.0597954-2.1366272-2.9249725c2.9128494-2.1265182 5.5002441-4.625988 7.691452-7.4286652l2.8542252 2.2316322c-2.3973923 3.0654602-5.2273559 5.7984009-8.40905 8.1220055z"/><path d="m71.0216064 76.7538071c-.9692612 0-1.9415588-.2486343-2.8117752-.717598l-13.9214211-7.4994125 1.7181969-3.1897812 13.923439 7.5004272c.9632034.5225296 2.138649.2799606 2.8340149-.5174789.4073105-.4699783.6033859-1.0764008.5477982-1.7020264-.0545807-.6256256-.3537445-1.1885834-.8419113-1.5837708l-1.9162979-1.5615311 2.2882309-2.8077393 1.9122543 1.5585098c1.2532654 1.01474 2.0234222 2.4630814 2.1659317 4.0751495.1425095 1.6120758-.3618317 3.1746216-1.4210434 4.3975677-1.1360321 1.3027957-2.7662963 2.047684-4.477417 2.047684z"/><path d="m65.4677963 82.8473358c-.7964325 0-1.6080284-.178894-2.3488731-.5184937l-13.4433594-6.2441177 1.5261612-3.2847824 13.4342613 6.2400742c.7832947.356781 1.7323456.1576691 2.285202-.4527893.718605-.7863312.686264-1.9819946-.0687332-2.7258682l-1.192627-1.1815109 2.548996-2.5732498 1.1885834 1.1774673c2.1467361 2.1133804 2.2366867 5.5154037.2021408 7.7429962-1.0491104 1.1552353-2.5570755 1.8202743-4.131752 1.8202743z"/><path d="m57.4852638 87.3368759c-.6650429.0010147-1.33918-.1030884-1.9991684-.3193817-3.4586258-1.1218796-7.2426987-2.5722351-11.5654716-4.4309158l1.4311523-3.32724c4.2186737 1.8142166 7.9006653 3.2251587 11.2561989 4.3136826 1.244175.4073105 2.5944748-.1000595 3.2938805-1.2300262l.2395363-.3749695c.3284798-.5265732.4679565-1.1542206.3941727-1.7980423l3.5981026-.4143906c.1667633 1.4453125-.1637344 2.9179001-.9288368 4.1459045l-.2365036.3699188c-1.2017251 1.9435806-3.2948915 3.0654602-5.4830629 3.0654602z"/><path d="m36.9386864 36.9715347c-5.6548805-1.3917389-10.0686188-3.3676605-12.1961479-4.4208145l1.6070175-3.246376c1.9951267.9884663 6.1359749 2.8410835 11.4542923 4.1499443z"/><path d="m15.5239182 63.4276924c-2.033534-2.2558899-4.2227163-5.5578537-5.7023859-7.9309845l3.0745583-1.9162941c1.1471472 1.8415031 3.3646288 5.2546463 5.3183184 7.4236145z"/><path d="m19.0532913 72.0358505c-1.9971485 0-3.920516-1.0228348-4.922122-2.8259277l-.0677176-.1364441c-.6690845-1.2290115-.7944117-2.8168259-.3133173-4.2934647.4366236-1.306839 1.0612373-2.5520248 1.8617144-3.7133255.8176594-1.212841 1.8778858-2.4155769 3.1402531-3.5607033 1.1137943-1.0086823 2.5621319-1.5403137 4.0498867-1.4917984 1.5777073.0475044 3.077589.7549934 4.1135597 1.9405479 1.2967319 1.4948311 1.728302 3.5890083 1.1299667 5.4719467l-3.4525623-1.0976219c.2183132-.6872787.0616531-1.4523811-.4093342-1.9951286-.3769913-.431572-.9086208-.6812134-1.4917965-.6994057-.5528545.0050545-1.0925694.1799049-1.5079689.5558853-1.0450668.94804-1.9142704 1.9304428-2.5793133 2.9168892-.6175404.8954849-1.0895386 1.835434-1.4139729 2.8067245-.168787.5164642-.136446 1.0784149.0879307 1.4928055l.0485134.0960159c.5467911.9844284 1.8637371 1.1259232 2.751133.6579666l1.6818104 3.2079697c-.8631401.4527971-1.7929878.6670686-2.7066631.6670686z"/><path d="m38.9186554 87.7239761c-.1728325 0-.3466721-.0070724-.5195007-.0232468-1.8111801-.1617126-3.3717041-1.1340103-4.2813377-2.6662292l.0141487-.0091019-.1010704-.1354294c-.6933403-1.1825256-.8651619-2.7652817-.4285355-4.2661819.3547554-1.1996994.8823433-2.3690872 1.5706291-3.4849014l3.0826454 1.9021454c-.5195007.842926-.915699 1.7181931-1.1774712 2.6015472-.1576691.5437546-.1142082 1.0915604.1212845 1.4948273l-.0030289.0020218.0363846.0454865c.4224739.7125397 1.1137924.8742523 1.4887657.907608.7084999.0656967 1.4089165-.2152786 1.8698006-.7469101 1.0117111-1.1592789 1.8475647-2.3781815 2.5318069-3.4181976.3284798-.5013046.6579704-1.0157547.9884682-1.5312119.5093956-.7974472.4194412-1.8364487-.221344-2.5227127-.7792511-.8510132-2.1810951-.864151-2.9997635-.0656967-.1192627.1101685-.1900139.1819229-.2617722.2587357l-2.6722984-2.4438782c.1445312-.1596909.2900696-.3042221.4477386-.4487534 1.0369835-1.0117111 2.4610634-1.5918579 3.9670105-1.5918579 1.5878143 0 3.1099319.6680756 4.1782455 1.831398 1.7576103 1.8859711 2.0143318 4.7412033.6134949 6.934433-.337574.528595-.675148 1.053154-1.0117111 1.5675964-.7539864 1.1451263-1.6777687 2.4903717-2.8269386 3.8073196-1.1026763 1.2724762-2.7218207 2.0011902-4.405651 2.0011902z"/><path d="m23.9491367 77.6290741c-.4174213 0-.8307991-.0404282-1.2350788-.1222916-1.7758064-.3638535-3.1705761-1.5200958-3.8265209-3.1715851l.0080853-.0030289-.0323429-.0848999-.010107.0040436c-.6973839-1.8020859-.506361-3.855835.4992867-5.3577423 1.6686707-2.4923935 3.6344872-4.8513718 5.5366306-7.1325264.4538059-.5447693.906601-1.0875168 1.3543415-1.6302643 1.10672-1.3442345 2.6743202-2.1538086 4.4137402-2.2831764 1.6909046-.1313934 3.3393612.4113541 4.5168285 1.4725914.2819862.2546997.5235443.5225334.7378159.820694 1.6272316 2.2417374 1.3674774 5.6063652-.6337128 8.1775932-1.8293724 2.3478622-3.6557121 4.6916809-5.8357964 6.891983l-.0020218.0010147c-1.5382901 1.5483933-3.5556527 2.417595-5.4911481 2.417595zm-1.7141533-4.6724777.0181942.0404282c.2092152.5255661.5973244.8398972 1.1875744.9601669 1.0814533.2223587 2.4256878-.2880478 3.4303265-1.2987518 2.0274696-2.0456619 3.7072563-4.2024994 5.4860954-6.4846649 1.0632591-1.3664703 1.2977409-2.9765244.6205711-3.9094009-.0667076-.0929871-.1394768-.1718216-.2294312-.2536888-.4335899-.39114-1.1329975-.6054077-1.8243179-.5498199-.5255661.0384064-1.2805614.2385254-1.8849602.9733047-.4517841.547802-.9086227 1.0966148-1.3674812 1.6464348-1.8425121 2.2093964-3.7466755 4.4935837-5.3092213 6.827301-.4022598.6013641-.3557682 1.4554138-.1313915 2.035553z"/><path d="m30.6248283 84.0248032c-.390131 0-.7782421-.0363846-1.159277-.1081467-1.8283615-.3486862-3.2918587-1.5059433-4.015522-3.174614l-.0343628-.0838852-.0030327.0010071c-.621582-1.4715805-.558918-3.27771.1728306-4.9574966 1.3310947-3.0866852 3.5243206-5.9176636 6.7039909-8.6475754 2.5803223-2.2154617 6.2218857-2.3508911 8.4727211-.3224106.2779427.2506485.5154572.5114136.7277069.7964325 1.6605835 2.214447 1.5130196 5.4719467-.3638535 7.9138031l-.0646858.0838852c-1.6221771 2.1073151-3.3009529 4.2874069-5.3324661 6.3209381l-.0020218.0020218c-1.3947714 1.392746-3.2706336 2.1760407-5.1020278 2.1760407zm-1.8738441-4.7715302.0222359.0475082c.3112965.7165833.9177189.9702759 1.3715248 1.0571899 1.0086803.1910248 2.1659355-.2183075 3.0230103-1.0723495 1.865757-1.8687897 3.4000053-3.8608856 5.0231934-5.9692154l.0636749-.0828781c.8894196-1.1572495 1.0258636-2.613678.3315086-3.5394821-.0727692-.0980377-.1505928-.18293-.2496414-.2718735-.9025574-.8146286-2.487339-.6508942-3.6860352.3790131-2.7531528 2.3640289-4.6310387 4.7654648-5.7407894 7.3407364-.3355541.7691422-.3941746 1.5544586-.1596928 2.1083221z"/></svg>