<svg id="Layer_1" height="512" viewBox="0 0 32 32" width="512" xmlns="http://www.w3.org/2000/svg" data-name="Layer 1"><path d="m27.5 9h-.5v-1c0-2.757-2.243-5-5-5h-12c-2.757 0-5 2.243-5 5v1h-.5c-1.379 0-2.5 1.122-2.5 2.5v2.5c0 .552.447 1 1 1s1-.448 1-1v-2.5c0-.276.225-.5.5-.5h.5v10c0 1.628.794 3.063 2.002 3.976 0 .008-.002.016-.002.024v2c0 1.105.895 2 2 2h1c1.105 0 2-.895 2-2v-1h8v1c0 1.105.895 2 2 2h1c1.105 0 2-.895 2-2v-2c0-.008-.002-.016-.002-.024 1.208-.914 2.002-2.348 2.002-3.976v-10h.5c.275 0 .5.224.5.5v2.5c0 .552.447 1 1 1s1-.448 1-1v-2.5c0-1.378-1.121-2.5-2.5-2.5zm-18 14c-.828 0-1.5-.672-1.5-1.5s.672-1.5 1.5-1.5 1.5.672 1.5 1.5-.672 1.5-1.5 1.5zm13 0c-.828 0-1.5-.672-1.5-1.5s.672-1.5 1.5-1.5 1.5.672 1.5 1.5-.672 1.5-1.5 1.5zm2.5-8.525c0 .977-.703 1.828-1.669 1.974-2.374.357-4.823.549-7.331.549s-4.957-.191-7.331-.549c-.966-.146-1.669-.997-1.669-1.974v-5.475c0-1.105.895-2 2-2h14c1.105 0 2 .895 2 2z"/></svg>